<svg xmlns="http://www.w3.org/2000/svg" width="67.467" height="29.015" viewBox="0 0 67.467 29.015">
  <g id="组_285" data-name="组 285" transform="translate(-76 -277)">
    <path id="路径_9" data-name="路径 9" d="M48.013,34.905H8.581C3,34.905,0,31.9,0,26.324V14.471C0,8.893,3,5.89,8.581,5.89H48.013c-5.577,0-8.581,3-8.581,8.581V26.324c0,5.578,3,8.581,8.581,8.581" transform="translate(76 271.11)" fill="#009dff"/>
    <path id="路径_10" data-name="路径 10" d="M67.254,53.164H64.032V48.147H61.254v11.77h4.281v3.146H53.122V59.916h4.3V48.147H54.641v5.018H51.418V44.847H67.254Z" transform="translate(31.588 237.461)" fill="#fff"/>
    <path id="路径_11" data-name="路径 11" d="M189.42,59.917v3.146h-8.148V59.917h2.256l3.882-11.923h-1.841V44.848h7.78l4.772,15.069h2.271v3.146h-8.409V59.917h2.286l-3.407-11.923h-.092L187.3,59.917Zm5.064-5.386.875,3.023h-9.192l.89-3.023Z" transform="translate(-80.573 237.46)" fill="#fff"/>
    <path id="路径_12" data-name="路径 12" d="M309.809,5.89H297.982c-5.577,0-8.581,3-8.581,8.581V26.324c0,5.578,3,8.581,8.581,8.581h19.454V5.89Z" transform="translate(-173.969 271.11)" fill="#beec00"/>
    <path id="路径_13" data-name="路径 13" d="M349.354,50.068h-3.606V49.1a2.437,2.437,0,0,0-.921-2.049,4.467,4.467,0,0,0-2.762-.714,4.532,4.532,0,0,0-2.325.537,3.363,3.363,0,0,0-1.389,1.841,10.764,10.764,0,0,0-.476,3.575,9.7,9.7,0,0,0,.545,3.645,3.3,3.3,0,0,0,1.642,1.811,6.962,6.962,0,0,0,2.923.514,6.287,6.287,0,0,0,2.455-.476V54.933h-3.7V51.787h8.67v3.146H349.2v3.652a2,2,0,0,1-.238,1.013,2.034,2.034,0,0,1-.76.721,9.654,9.654,0,0,1-2.755,1.1,14.037,14.037,0,0,1-3.108.322q-8.578,0-8.578-9.453a11.83,11.83,0,0,1,1.02-5.179,7.106,7.106,0,0,1,2.785-3.146,7.763,7.763,0,0,1,4.005-1.036,5.08,5.08,0,0,1,2.494.537,3.581,3.581,0,0,1,1.5,1.734h.506v-2.01h3.284Z" transform="translate(-212.287 239.114)"/>
  </g>
</svg>
